<?xml version="1.0" encoding="UTF-8"?>
<svg fill="#222" width="27.899" height="28.082" version="1.1" viewBox="0 0 27.899 28.082" xml:space="preserve" xmlns="http://www.w3.org/2000/svg"><g transform="translate(-.033073 -.19844)" stroke-linecap="round"><rect x=".036212" y=".19938" width="2.7128" height="11.354" stroke-width="2.5013"/><rect x="9.9716" y=".21746" width="2.7128" height="11.342" stroke-width="2.5"/><rect x=".68518" y=".19353" width="11.997" height="2.7128" stroke-width="2.5"/><rect x="5.0105" y="5.066" width="2.712" height="6.494" stroke-width="2.5022"/><g transform="matrix(0 .89322 -.87488 0 71.598 -43.017)" stroke-width="2.5"><rect x="48.386" y="54.49" width="2.7128" height="11.342"/><rect x="58.356" y="54.49" width="2.7128" height="11.342"/><rect x="49.087" y="54.466" width="11.997" height="2.7128"/><rect x="53.413" y="59.333" width="2.712" height="6.4823"/></g><g transform="translate(11.257 12.72)"><rect x=".036212" y=".19938" width="2.7128" height="11.354" stroke-width="2.5013"/><rect x="9.9716" y=".21746" width="2.7128" height="11.342" stroke-width="2.5"/><rect x=".68518" y=".19353" width="11.997" height="2.7128" stroke-width="2.5"/><rect x="5.0105" y="5.066" width="2.712" height="6.494" stroke-width="2.5022"/></g><g transform="matrix(0 .89322 -.87488 0 57.637 -30.281)" stroke-width="2.5"><rect x="48.386" y="54.49" width="2.7128" height="11.342"/><rect x="58.356" y="54.49" width="2.7128" height="11.342"/><rect x="49.087" y="54.466" width="11.997" height="2.7128"/><rect x="53.413" y="59.333" width="2.712" height="6.4823"/></g></g></svg>